{
	"asset":{
		"generator":"Khronos glTF Blender I/O v4.4.55",
		"version":"2.0"
	},
	"scene":0,
	"scenes":[
		{
			"name":"Scene",
			"nodes":[
				0,
				1
			]
		}
	],
	"nodes":[
		{
			"mesh":0,
			"name":"3.004",
			"scale":[
				0.06576336920261383,
				0.12999999523162842,
				0.06549499928951263
			],
			"translation":[
				0.6923678517341614,
				0.025012541562318802,
				-0.17687098681926727
			]
		},
		{
			"mesh":1,
			"name":"3.005",
			"scale":[
				0.06576336920261383,
				0.12999999523162842,
				0.06549499928951263
			],
			"translation":[
				0.6024655699729919,
				0.040055446326732635,
				-0.17687098681926727
			]
		}
	],
	"materials":[
		{
			"doubleSided":true,
			"name":"Material.001",
			"pbrMetallicRoughness":{
				"baseColorFactor":[
					0.18524250388145447,
					0.8002749681472778,
					0.23471517860889435,
					1
				],
				"metallicFactor":0,
				"roughnessFactor":0.5
			}
		}
	],
	"meshes":[
		{
			"name":"Plane.001",
			"primitives":[
				{
					"attributes":{
						"POSITION":0,
						"NORMAL":1,
						"TEXCOORD_0":2
					},
					"indices":3,
					"material":0
				}
			]
		},
		{
			"name":"Plane.009",
			"primitives":[
				{
					"attributes":{
						"POSITION":4,
						"NORMAL":5,
						"TEXCOORD_0":6
					},
					"indices":7,
					"material":0
				}
			]
		}
	],
	"accessors":[
		{
			"bufferView":0,
			"componentType":5126,
			"count":2565,
			"max":[
				0.781687319278717,
				-0.08036817610263824,
				2.881337881088257
			],
			"min":[
				-1.3481255769729614,
				-0.19687628746032715,
				-3.4678666591644287
			],
			"type":"VEC3"
		},
		{
			"bufferView":1,
			"componentType":5126,
			"count":2565,
			"type":"VEC3"
		},
		{
			"bufferView":2,
			"componentType":5126,
			"count":2565,
			"type":"VEC2"
		},
		{
			"bufferView":3,
			"componentType":5123,
			"count":4644,
			"type":"SCALAR"
		},
		{
			"bufferView":4,
			"componentType":5126,
			"count":6379,
			"max":[
				2.780289649963379,
				-0.08324497938156128,
				2.870975971221924
			],
			"min":[
				1.0798813104629517,
				-0.1927536278963089,
				-3.4676599502563477
			],
			"type":"VEC3"
		},
		{
			"bufferView":5,
			"componentType":5126,
			"count":6379,
			"type":"VEC3"
		},
		{
			"bufferView":6,
			"componentType":5126,
			"count":6379,
			"type":"VEC2"
		},
		{
			"bufferView":7,
			"componentType":5123,
			"count":10170,
			"type":"SCALAR"
		}
	],
	"bufferViews":[
		{
			"buffer":0,
			"byteLength":30780,
			"byteOffset":0,
			"target":34962
		},
		{
			"buffer":0,
			"byteLength":30780,
			"byteOffset":30780,
			"target":34962
		},
		{
			"buffer":0,
			"byteLength":20520,
			"byteOffset":61560,
			"target":34962
		},
		{
			"buffer":0,
			"byteLength":9288,
			"byteOffset":82080,
			"target":34963
		},
		{
			"buffer":0,
			"byteLength":76548,
			"byteOffset":91368,
			"target":34962
		},
		{
			"buffer":0,
			"byteLength":76548,
			"byteOffset":167916,
			"target":34962
		},
		{
			"buffer":0,
			"byteLength":51032,
			"byteOffset":244464,
			"target":34962
		},
		{
			"buffer":0,
			"byteLength":20340,
			"byteOffset":295496,
			"target":34963
		}
	],
	"buffers":[
		{
			"byteLength":315836,
			"uri":"ss.bin"
		}
	]
}
